<?xml version="1.0" encoding="utf-8"?>
<!-- Generator: Adobe Illustrator 22.1.0, SVG Export Plug-In . SVG Version: 6.00 Build 0)  -->
<svg version="1.1" id="Layer_1" xmlns="http://www.w3.org/2000/svg" xmlns:xlink="http://www.w3.org/1999/xlink" x="0px" y="0px"
	 viewBox="0 0 100 100" style="enable-background:new 0 0 100 100;" xml:space="preserve">
<style type="text/css">
	.st0{fill:#F1F1F1;}
</style>
<g id="ELEMENTS">
	<path class="st0" d="M70,27.2c-2.4,0-4.4,2-4.4,4.4c0,2.4,2,4.4,4.4,4.4c2.4,0,4.4-2,4.4-4.4v0C74.4,29.2,72.5,27.3,70,27.2
		C70,27.2,70,27.2,70,27.2z"/>
	<path class="st0" d="M50.3,32.9c-10.3,0-18.6,8.3-18.6,18.6S40.1,70,50.3,70s18.6-8.3,18.6-18.6C68.9,41.2,60.6,32.9,50.3,32.9z
		 M50.3,63.4c-6.6,0-11.9-5.3-11.9-11.9s5.3-11.9,11.9-11.9s11.9,5.3,11.9,11.9l0,0C62.2,58,56.9,63.4,50.3,63.4z"/>
	<path class="st0" d="M65.1,89.2H35c-12.5,0-22.7-10.1-22.7-22.6V36.4c0-12.5,10.2-22.7,22.7-22.6h30.1c12.5,0,22.6,10.2,22.6,22.6
		v30.1C87.7,79,77.5,89.2,65.1,89.2z M35,20.9c-8.6,0-15.6,6.9-15.6,15.5c0,0,0,0,0,0v30.1c0,8.6,7,15.6,15.6,15.6c0,0,0,0,0,0h30.1
		c8.6,0,15.5-7,15.5-15.6V36.4c0-8.6-7-15.5-15.5-15.5H35z"/>
</g>
</svg>
