<?xml version="1.0" encoding="utf-8"?>
<!-- Generator: Adobe Illustrator 22.1.0, SVG Export Plug-In . SVG Version: 6.00 Build 0)  -->
<svg version="1.1" id="Layer_1" xmlns="http://www.w3.org/2000/svg" xmlns:xlink="http://www.w3.org/1999/xlink" x="0px" y="0px"
	 viewBox="0 0 100 100" style="enable-background:new 0 0 100 100;" xml:space="preserve">
<style type="text/css">
	.st0{fill:#F1F1F1;}
</style>
<g id="ELEMENTS">
	<path class="st0" d="M87.6,27.8c-2.4,1.1-5,1.8-7.7,2.2c1.2-0.2,3-2.4,3.8-3.4c1.1-1.4,2-3,2.5-4.6c0.1-0.1,0.1-0.3,0-0.4
		c-0.1-0.1-0.3-0.1-0.4,0c-2.9,1.5-5.9,2.7-9.1,3.5c-0.2,0.1-0.5,0-0.6-0.2c-0.2-0.3-0.5-0.6-0.8-0.8c-1.3-1.1-2.8-2-4.4-2.7
		c-2.1-0.9-4.4-1.2-6.8-1.1c-2.2,0.2-4.4,0.8-6.4,1.8c-2,1-3.7,2.5-5.2,4.2c-1.5,1.8-2.5,3.9-3.1,6.2c-0.5,2.1-0.5,4.4-0.2,6.5
		c0,0.4,0,0.4-0.3,0.4c-12.5-1.9-22.8-6.3-31.2-15.9c-0.4-0.4-0.6-0.4-0.9,0c-3.7,5.5-1.9,14.4,2.7,18.7c0.6,0.6,1.2,1.2,1.9,1.7
		c-2.1-0.2-4.1-0.7-6-1.7C15.2,42,15,42.1,15,42.6c0,0.6,0,1.2,0.1,1.8c0.7,5.7,4.5,10.6,9.8,12.8c0.6,0.3,1.3,0.5,2,0.6
		C25,58.1,23,58.2,21,57.9c-0.4-0.1-0.6,0.1-0.4,0.5c2.6,7.1,8.2,9.2,12.4,10.4c0.6,0.1,1.1,0.1,1.7,0.2c0,0-0.1,0-0.1,0.1
		c-1.4,2.1-6.2,3.7-8.5,4.5c-4.1,1.5-8.5,2-12.9,1.7c-0.7-0.1-0.8-0.1-1,0s0,0.3,0.2,0.5c0.9,0.6,1.8,1.1,2.7,1.6
		c2.7,1.5,5.6,2.6,8.6,3.4c15.5,4.3,32.9,1.2,44.5-10.4c9.1-9.1,12.3-21.6,12.3-34.1c0-0.5,0.6-0.8,0.9-1c2.3-1.8,4.4-4,6.1-6.4
		c0.3-0.3,0.4-0.8,0.4-1.2v-0.1C87.9,27.6,87.9,27.6,87.6,27.8z"/>
</g>
</svg>
