<?xml version="1.0" encoding="utf-8"?>
<!-- Generator: Adobe Illustrator 22.1.0, SVG Export Plug-In . SVG Version: 6.00 Build 0)  -->
<svg version="1.1" id="Layer_1" xmlns="http://www.w3.org/2000/svg" xmlns:xlink="http://www.w3.org/1999/xlink" x="0px" y="0px"
	 viewBox="0 0 100 100" style="enable-background:new 0 0 100 100;" xml:space="preserve">
<style type="text/css">
	.st0{fill:#F1F1F1;}
</style>
<g id="ELEMENTS">
	<path class="st0" d="M90.2,41c0-9.7-7.9-17.6-17.6-17.6c0,0,0,0,0,0H27.5c-9.7,0-17.6,7.9-17.6,17.6c0,0,0,0,0,0v21
		c0,9.7,7.9,17.6,17.6,17.6h45.1c9.7,0,17.6-7.9,17.6-17.6V41z M63.7,53L43.4,63c-0.8,0.4-3.4-0.1-3.4-1V41.5c0-0.9,2.7-1.5,3.5-1
		L62.8,51C63.6,51.4,64.5,52.6,63.7,53z"/>
</g>
</svg>
