<svg id="Layer_1" data-name="Layer 1" xmlns="http://www.w3.org/2000/svg" viewBox="0 0 207.09 64.79"><title>logo</title><g style="isolation:isolate"><path d="M15.61,11v-.33c0-.12.13-.22.41-.33a3.07,3.07,0,0,1,1.05-.15c.71,0,1.08.12,1.12.36a2.69,2.69,0,0,1,0,.4c1.71-.08,3.24-.18,4.56-.31A28.93,28.93,0,0,0,28,9.75a18.16,18.16,0,0,0,7.77-4,.33.33,0,0,1,.16,0,1.05,1.05,0,0,1,.68.38,1,1,0,0,1,.39.68A.22.22,0,0,1,37,7,18,18,0,0,1,28.7,12a39,39,0,0,1-9.45,1.63l-.84,0q.32,4.8.31,9.64c0,1.63,0,3.25-.14,4.88,2.76-.41,5.41-.71,7.93-.9,0,0,.09.08.15.23a2.22,2.22,0,0,1,.16.56,3.37,3.37,0,0,1,.06.59c0,.31-2.84,1.07-8.5,2.27,0,.15,0,.3,0,.45a50.68,50.68,0,0,1-4.43,17.45,22.34,22.34,0,0,1,3-.19h.42c.06,0,.13.27.22.81a4.62,4.62,0,0,1,.06.7,9.46,9.46,0,0,1-2.3.9s-.46.13-1.26.39c-1.59.49-2.77.84-3.56,1.06a0,0,0,0,0,0,0l-2.35.65a5.31,5.31,0,0,1-.49-1.17,6.81,6.81,0,0,1-.38-1.24v0a22.51,22.51,0,0,1,4.48-1.51,47,47,0,0,0,2.53-8.05,74.1,74.1,0,0,0,1.37-9.69c-2.5.46-4.81.84-6.92,1.12q-.16-.06-.42-1.23a7.22,7.22,0,0,1-.09-1.07c0-.15,0-.23.06-.25,2.48-.56,5-1.05,7.54-1.46.09-1.79.14-3.66.14-5.6,0-2.19-.07-5.24-.2-9.17L10,14.26a36.37,36.37,0,0,0-5.18,1A12.15,12.15,0,0,0,2.58,16a.3.3,0,0,1-.17.08A2.94,2.94,0,0,0,1.63,16C.54,16,0,15.8,0,15.33l0-.17A3.76,3.76,0,0,1,2.1,13.28c.15,0,.23-.06.23-.08l1.76-.62A46.68,46.68,0,0,1,15.61,11Z" transform="translate(0 -5.72)" style="fill:#fff"/><path d="M32.45,47.84a1.78,1.78,0,0,1-1-.23.74.74,0,0,1-.37-.17,4,4,0,0,1-1.31-1.34q-2-3.33-2-14.29c0-1.44,0-2.88.08-4.32,0-.18.44-.28,1.21-.28,1,0,1.51.17,1.51.39-.2,2.84-.31,5.67-.31,8.49,0,1.41.07,2.8.2,4.18.22,2.86.75,4.65,1.57,5.38a.58.58,0,0,1,.13.11.23.23,0,0,0,.21.09h.18l.1,0c.82-.21,1.6-1.19,2.35-3a35.73,35.73,0,0,0,2.35-8c.06-.15.26-.22.59-.22a1.15,1.15,0,0,1,.66.15c.14.1.21.2.21.29a30.37,30.37,0,0,1-3.17,10.57,5.5,5.5,0,0,1-.84,1.11l-.4.37s0,0,0,0l-.35.23a.71.71,0,0,1-.29.14A3,3,0,0,1,32.45,47.84ZM29.73,24.13h-.5c-.21,0-.38,0-.52-.05s-.21,0-.21-.05l-.31-5.72s.13,0,.39,0c.75,0,1.53.08,2.33.17L30,24.1S29.88,24.13,29.73,24.13Z" transform="translate(0 -5.72)" style="fill:#fff"/><path d="M40.24,46.46a.1.1,0,0,1-.08,0,4.89,4.89,0,0,1-.94.24,5.49,5.49,0,0,1-1,.1q-.39,0-.42-.09a69.35,69.35,0,0,1-.92-11.2,71.49,71.49,0,0,1,.47-8.13q0-.09.42-.09c.27,0,.59,0,1,.07a9.4,9.4,0,0,1,.95.17c.26.07.38.13.38.18a68,68,0,0,0-.45,7.8c0,1.88.08,3.76.23,5.63.18-.71.39-1.47.61-2.27a42.29,42.29,0,0,1,4-9.9c1.36-2.25,2.79-3.39,4.29-3.39a3.14,3.14,0,0,1,2.69,2.19A11.32,11.32,0,0,1,52,31.19c0,1-.07,2.33-.2,4a45.16,45.16,0,0,0-.34,4.9,10,10,0,0,0,.4,3.24c.26.74.59,1.11,1,1.11a1.77,1.77,0,0,0,.37,0,.52.52,0,0,0,.21,0,.7.7,0,0,1,.18,0,2.52,2.52,0,0,0,.53-.41,8.4,8.4,0,0,0,1.71-2.55,28.33,28.33,0,0,0,2.25-6.31q.13-.39.78-.39c.71.08,1.07.31,1.07.7A21,21,0,0,1,59.05,39q-1.77,5.72-4.32,7.26a3.05,3.05,0,0,1-1.68.48,2.76,2.76,0,0,1-.79-.12q-3.07-.78-3.08-5.94A43,43,0,0,1,49.49,35c.15-1.6.22-2.92.22-3.95,0-2.17-.32-3.25-1-3.25l0,0c-.56,0-1.35.76-2.36,2.3a42.09,42.09,0,0,0-4,9.33,57,57,0,0,0-1.71,6.61.38.38,0,0,1-.11.23v0s-.05.06-.17.12Z" transform="translate(0 -5.72)" style="fill:#fff"/><path d="M69.67,26.85a1.47,1.47,0,0,1,.59.14.05.05,0,0,0,0,0c.69.05,1,.19,1,.42-.3,3.28-.45,6.33-.45,9.13q0,7.2,1.74,8.94a1,1,0,0,0,.59.22,3,3,0,0,0,1.62-1.26A19,19,0,0,0,77.68,39a20.23,20.23,0,0,0,1.1-4c0-.18.28-.28.75-.28s.7.19.7.45a15.57,15.57,0,0,1-.42,2.22,26.67,26.67,0,0,1-2.3,6.27q-2.1,4.07-4.23,4.07h-.39c-1.35-.19-2.35-1.12-3-2.81q-1.36-3.55-1.4-11.37c-.76,1.79-1.31,3-1.62,3.7a19,19,0,0,1-2.12,3.51,10.44,10.44,0,0,1-2,2.12,4.79,4.79,0,0,1-2.55.9,2.81,2.81,0,0,1-.73-.09l-.06,0a1.6,1.6,0,0,1-.63-.22,2.19,2.19,0,0,1-.54-.34,2.53,2.53,0,0,1-.51-.47,4.34,4.34,0,0,1-1-3.09,11.29,11.29,0,0,1,.73-3.42A20.67,20.67,0,0,1,60,31.33a13.83,13.83,0,0,1,4-3.81,6.79,6.79,0,0,1,3.59-1.06A5.45,5.45,0,0,1,69.67,26.85Zm-1.1,1.57v-.14l-.36,0Q65,28.25,62,32.76a16.78,16.78,0,0,0-2.46,5.35l-.09.51a3.35,3.35,0,0,0-.11.92,2.07,2.07,0,0,0,.28,1.18.05.05,0,0,0,0,.05l0,0,.06,0s0,0,0,0l.34.09a2.8,2.8,0,0,0,1.73-1,2.24,2.24,0,0,0,.51-.56c.78-.78,2.09-3,3.92-6.72C67.27,30.81,68,29.39,68.57,28.42Z" transform="translate(0 -5.72)" style="fill:#fff"/></g><g style="isolation:isolate"><path d="M103.16,44.05a12.84,12.84,0,0,1-.9-4.79l0-1.85a95.69,95.69,0,0,1,1.46-16.56q.68-3.64,1.18-5.44c0-.07.15-.11.39-.11a4.84,4.84,0,0,1,1.76.38c.23.1.34.2.34.29q-1.42,7.87-2.13,14.3-.2,1.9-.67,8-.09,1.77-.09,2.22V41a8.18,8.18,0,0,0,.28,2.16,39.44,39.44,0,0,0,5.1-3.59l1.27-1.1c1.4-1.4,2.13-2.14,2.21-2.24l1.2-1.4Q119.27,29,119.41,23c0-.43,0-.9-.08-1.41a12.93,12.93,0,0,0-1.41-4.34,10,10,0,0,0-6.41-4.62,14.33,14.33,0,0,0-3.34-.48l-1.29.06a.62.62,0,0,1-.21,0c-.08,0-.52.07-1.33.2-.6.15-1,.24-1,.25l-.28.07-.35.1a23.32,23.32,0,0,0-7.85,4.51.38.38,0,0,1-.3.12,1.68,1.68,0,0,1-1.1-.59,1.64,1.64,0,0,1-.45-1c0-.35.91-1.18,2.72-2.47a25.69,25.69,0,0,1,5.1-2.8l.73-.25.31-.1.34-.1a17.7,17.7,0,0,1,3.44-.73l1,0,1.49,0a14.86,14.86,0,0,1,9.44,4.12A12.34,12.34,0,0,1,122,20.71a17.44,17.44,0,0,1,.17,2.35q-.15,6.87-5.69,13.43a16.33,16.33,0,0,1-1.6,1.76A36.57,36.57,0,0,1,94.22,49h-.14a.85.85,0,0,1-.51-.2.7.7,0,0,1-.25-.59.75.75,0,0,1,.59-.84A36.64,36.64,0,0,0,103.16,44.05Z" transform="translate(0 -5.72)" style="fill:#fff"/></g><g style="isolation:isolate"><path d="M123.39,38.81a8.41,8.41,0,0,0,.61,2.75,4.91,4.91,0,0,0,1.54,2.24s0,0,.09.06a.56.56,0,0,0,.18.12l.28.16.2.1.08,0a.32.32,0,0,0,.14,0,.31.31,0,0,1,.13.06,3.65,3.65,0,0,0,1.09.17,6.19,6.19,0,0,0,4-1.85,19.77,19.77,0,0,0,4.12-5.05,16,16,0,0,0,1.4-2.91c.07-.22.31-.34.7-.34.61.06.92.29.92.7a6.6,6.6,0,0,1-.56,1.83,21.6,21.6,0,0,1-2.58,4.76,15.55,15.55,0,0,1-3.89,4,7.6,7.6,0,0,1-4.35,1.46,6,6,0,0,1-1.62-.26l-.52-.18-.25-.11-.48-.24-.49-.28a1.09,1.09,0,0,0-.22-.17,8.76,8.76,0,0,1-3-5.18,11.11,11.11,0,0,1-.25-2.24,13.16,13.16,0,0,1,3.22-8.58A10.5,10.5,0,0,1,127,27.38a4.79,4.79,0,0,1,2.21-.62,2.65,2.65,0,0,1,1.94.76,3.54,3.54,0,0,1,1.12,2.69,5.93,5.93,0,0,1-.79,2.58,10.87,10.87,0,0,1-.6,1l-.15.17a8.2,8.2,0,0,1-1.66,1.63A21.13,21.13,0,0,1,123.39,38.81Zm.11-1.87a18.47,18.47,0,0,0,5.35-4.21.72.72,0,0,0,.14-.25,2.87,2.87,0,0,0,.42-.67,3.83,3.83,0,0,0,.45-1.49,1.1,1.1,0,0,0-.42-1l-.25,0a2.55,2.55,0,0,0-1,.4,9.56,9.56,0,0,0-3.84,4.54A11.35,11.35,0,0,0,123.5,36.94Z" transform="translate(0 -5.72)" style="fill:#fff"/><path d="M146.56,42a5.74,5.74,0,0,1,.48,2.29,4.79,4.79,0,0,1-.73,2.53,5.22,5.22,0,0,1-2.3,2,5.37,5.37,0,0,1-2.47.56,7.27,7.27,0,0,1-4-1.26A11.23,11.23,0,0,1,134,44.25l0-.11q0-.42.81-.9c0-1,.12-1.46.26-1.51.56,0,1.12.05,1.68.05a22.4,22.4,0,0,0,6-.78,8.92,8.92,0,0,0-1.76-1.51c-.3-.21-.72-.47-1.26-.79q-3.61-2.07-3.62-5.69a8.66,8.66,0,0,1,.34-2.44,9,9,0,0,1,4.48-5.6,7.46,7.46,0,0,1,3.06-.67,4.58,4.58,0,0,1,2,.47,3.83,3.83,0,0,1,1.9,3.65,7.52,7.52,0,0,1-.25,1.9q-1,4.29-1.76,4.29a2.65,2.65,0,0,1-1-.25c-.71-.34-1.07-.65-1.07-.93l0-.08a21.91,21.91,0,0,0,1.18-3.64,7.12,7.12,0,0,0,.17-1.29c0-.64-.15-1.05-.45-1.24a2.88,2.88,0,0,0-.87-.16,3.8,3.8,0,0,0-1.65.42A6.28,6.28,0,0,0,139,31.33a6.17,6.17,0,0,0-.25,1.68,3.45,3.45,0,0,0,.46,1.78,4.72,4.72,0,0,0,1.84,1.56c.45.26.9.54,1.37.84a11.45,11.45,0,0,1,3,2.83,16.14,16.14,0,0,0,6.53-5.16h0a2.34,2.34,0,0,1,.91.48c.46.32.69.55.69.7A18.92,18.92,0,0,1,146.56,42Zm-9.16,2.38a6.78,6.78,0,0,0,1.6,1.46,4.67,4.67,0,0,0,2.49.81,3.42,3.42,0,0,0,1.34-.28,2.4,2.4,0,0,0,1.32-1.26,1.55,1.55,0,0,0,.1-.33c0-.06,0-.14,0-.23a1.41,1.41,0,0,0,0-.28A3,3,0,0,0,144,43.1,24.69,24.69,0,0,1,137.4,44.42Z" transform="translate(0 -5.72)" style="fill:#fff"/><path d="M155.84,47.84a1.82,1.82,0,0,1-1-.23.76.76,0,0,1-.36-.17,3.92,3.92,0,0,1-1.32-1.34q-2-3.33-2-14.29,0-2.16.09-4.32c0-.18.44-.28,1.2-.28,1,0,1.52.17,1.52.39q-.31,4.26-.31,8.49a41.35,41.35,0,0,0,.2,4.18q.33,4.29,1.56,5.38a.58.58,0,0,1,.13.11.26.26,0,0,0,.21.09H156l.1,0c.82-.21,1.61-1.19,2.36-3a36.26,36.26,0,0,0,2.35-8c.06-.15.25-.22.59-.22a1.15,1.15,0,0,1,.66.15c.14.1.21.2.21.29a30.58,30.58,0,0,1-3.17,10.57,6.35,6.35,0,0,1-.84,1.11,4.33,4.33,0,0,1-.41.37s0,0,0,0l-.35.23a.73.73,0,0,1-.3.14A3,3,0,0,1,155.84,47.84Zm-2.72-23.71h-.51l-.51-.05c-.14,0-.21,0-.21-.05l-.31-5.72s.13,0,.39,0c.75,0,1.52.08,2.33.17l-1,5.66S153.27,24.13,153.12,24.13Z" transform="translate(0 -5.72)" style="fill:#fff"/><path d="M173.35,48.93c1.16,0,2.36-.06,3.59-.06A118.08,118.08,0,0,1,198.6,51q3.33.61,5.69,1.26a9,9,0,0,1,2.35.79,1.09,1.09,0,0,1,.45.81,1.18,1.18,0,0,1-.05.31,1,1,0,0,1-1,.53l-.45-.08a83.84,83.84,0,0,0-14.88-2.83A122.13,122.13,0,0,0,177.08,51l-3.53.08a4.36,4.36,0,0,0-.51,0c-.18,1-.39,2-.61,3a25.48,25.48,0,0,1-5.38,10.7,17.71,17.71,0,0,1-6.62,4.8,13.38,13.38,0,0,1-4.12,1h-.39a8.25,8.25,0,0,1-2.38-.34l-.28-.11a6.76,6.76,0,0,1-4.29-4,7.24,7.24,0,0,1-.45-2.36,12.09,12.09,0,0,1,.06-1.43s0,0,0-.08a3.38,3.38,0,0,1,0-.53,12,12,0,0,1,1.49-4,13.7,13.7,0,0,1,6.22-5.36,35.13,35.13,0,0,1,11.41-3c.95-.11,1.94-.21,3-.28q.39-3.12.5-6.78l.31-10.26c-.32.73-.66,1.54-1,2.44a26,26,0,0,1-3.5,6.33q-1.94,2.55-4.26,2.55l-.53,0a.71.71,0,0,0-.26-.05,3.66,3.66,0,0,1-1.62-1,.34.34,0,0,1-.13-.16.79.79,0,0,0-.21-.24,5.38,5.38,0,0,1-.73-2.77,10.68,10.68,0,0,1,.73-3.39A19.47,19.47,0,0,1,162.65,31a13.75,13.75,0,0,1,4-3.79,6.79,6.79,0,0,1,3.59-1.06,6.13,6.13,0,0,1,1.65.22,2,2,0,0,1,.2-.22,1.39,1.39,0,0,1,.9-.31,1.42,1.42,0,0,1,1,.38,1.24,1.24,0,0,1,.4.91L174,38.59c0,.78-.05,2.06-.14,3.84Q173.71,46,173.35,48.93Zm-2.94,2.3a45.12,45.12,0,0,0-9.67,1.82q-9.42,2.84-9.92,10.31l0,.42a4,4,0,0,0,2.3,3.65l1,.47h.09a3.46,3.46,0,0,0,1.54.23,8.89,8.89,0,0,0,2.07-.26,14.37,14.37,0,0,0,7.32-4.73A23.41,23.41,0,0,0,170,53.47C170.13,52.76,170.28,52,170.41,51.23Zm.84-23.32h-.36q-2.41,0-4.77,2.61a17.76,17.76,0,0,0-3.58,6.13,7.58,7.58,0,0,0-.43,1.49.59.59,0,0,1,0,.21,4.89,4.89,0,0,0-.07.83,2.31,2.31,0,0,0,.28,1.2,0,0,0,0,0,0,0,.09.09,0,0,1,.06.06s0,0,.07,0,.15.11.45.11c.09,0,.14,0,.14,0a3.17,3.17,0,0,0,1.48-1l.2-.2a28.94,28.94,0,0,0,3.64-5.94Q170.22,29.87,171.25,27.91Z" transform="translate(0 -5.72)" style="fill:#fff"/><path d="M181.42,46.46a.1.1,0,0,1-.08,0,4.89,4.89,0,0,1-.94.24,5.49,5.49,0,0,1-1,.1q-.39,0-.42-.09a69.35,69.35,0,0,1-.92-11.2,71.49,71.49,0,0,1,.47-8.13c0-.06.16-.09.43-.09s.58,0,1,.07a9.4,9.4,0,0,1,1,.17c.26.07.38.13.38.18a68,68,0,0,0-.45,7.8c0,1.88.08,3.76.23,5.63.19-.71.39-1.47.62-2.27a41.89,41.89,0,0,1,4-9.9c1.36-2.25,2.79-3.39,4.29-3.39a3.14,3.14,0,0,1,2.69,2.19,11.32,11.32,0,0,1,.45,3.39c0,1-.07,2.33-.2,4a45.16,45.16,0,0,0-.34,4.9,10.25,10.25,0,0,0,.4,3.24c.26.74.59,1.11,1,1.11a1.63,1.63,0,0,0,.36,0,.52.52,0,0,0,.21,0,.83.83,0,0,1,.18,0,2.27,2.27,0,0,0,.53-.41A8.4,8.4,0,0,0,197,41.42a28.33,28.33,0,0,0,2.25-6.31q.13-.39.78-.39c.71.08,1.07.31,1.07.7a21,21,0,0,1-.87,3.56q-1.77,5.72-4.32,7.26a3.05,3.05,0,0,1-1.68.48,2.64,2.64,0,0,1-.78-.12q-3.09-.78-3.09-5.94a43,43,0,0,1,.31-5.66c.15-1.6.23-2.92.23-3.95,0-2.17-.33-3.25-1-3.25l0,0c-.56,0-1.35.76-2.36,2.3a42.09,42.09,0,0,0-4,9.33,55,55,0,0,0-1.7,6.61.46.46,0,0,1-.12.23v0s0,.06-.16.12Z" transform="translate(0 -5.72)" style="fill:#fff"/></g></svg>